<?xml version="1.0" standalone="no"?><!DOCTYPE svg PUBLIC "-//W3C//DTD SVG 1.1//EN" "http://www.w3.org/Graphics/SVG/1.1/DTD/svg11.dtd"><svg t="1626054627297" class="icon" viewBox="0 0 1024 1024" version="1.1" xmlns="http://www.w3.org/2000/svg" p-id="5423" xmlns:xlink="http://www.w3.org/1999/xlink" width="200" height="200"><defs><style type="text/css"></style></defs><path d="M914.29516325 75.57150341h-286.72c-3.75375645 0-6.82666667 3.07169659-6.82666666 6.82666667v63.71555555c0 3.75375645 3.07291022 6.82666667 6.82666666 6.82666667h182.49955557L583.31651792 379.69859318c-56.88888889-43.80353422-126.29394015-67.469312-199.2257991-67.469312-87.49420089 0-169.869312 34.13333333-231.65155557 96.02844445S56.41071882 552.41386667 56.41071882 639.90928118s34.13333333 169.869312 96.02844443 231.65155557c61.78224355 61.89511111 144.15735467 96.02844445 231.65155557 96.02844443s169.87052563-34.13333333 231.65155555-96.02844443c61.89511111-61.78224355 96.02844445-144.15735467 96.02844445-231.65155557 0-72.93185897-23.66577778-142.10874785-67.35644445-198.99763673l226.64533333-226.64533334v182.15852564c0 3.75375645 3.07291022 6.82666667 6.82666667 6.82666666h63.71555555c3.75497008 0 6.82666667-3.07291022 6.82666667-6.82666666v-286.72c0-18.77363675-15.35969659-34.13333333-34.13333334-34.13333334z m-530.20444443 805.54666667c-133.005312 0-241.20888889-108.20357689-241.2088889-241.2088889s108.20357689-241.20888889 241.2088889-241.20888888 241.20888889 108.20236325 241.20888888 241.20888888-108.20236325 241.20888889-241.20888888 241.2088889z" p-id="5424"></path></svg>